<svg height='100px' width='100px'  fill="#000000" xmlns="http://www.w3.org/2000/svg" viewBox="0 0 64 64" x="0px" y="0px"><path d="M3.381,28.225a1.129,1.129,0,0,0-.093.075,1.006,1.006,0,0,0-.089.115c-.022.03-.047.057-.066.089a.99.99,0,0,0-.063.15c-.011.03-.027.057-.035.087A.975.975,0,0,0,3,29V61a1,1,0,0,0,1,1H56a1,1,0,0,0,1-1V29a.975.975,0,0,0-.035-.259c-.008-.03-.024-.057-.035-.087a.99.99,0,0,0-.063-.15c-.019-.032-.044-.059-.066-.089a1.006,1.006,0,0,0-.089-.115,1.129,1.129,0,0,0-.093-.075,1.182,1.182,0,0,0-.095-.077L37.687,16.557C39.443,14.694,41,12.247,41,11a4,4,0,0,0-7-2.643A4,4,0,0,0,27,11a5.1,5.1,0,0,0,.786,2.188l-6.179,3.8A3.963,3.963,0,0,0,16,17.357,4,4,0,0,0,9,20a7.966,7.966,0,0,0,1.752,3.671L3.476,28.148A1.182,1.182,0,0,0,3.381,28.225ZM13,18a2,2,0,0,1,2,2v.27a1,1,0,0,0,2,0V20a2,2,0,0,1,4,0c-.023,1.253-3.867,5.853-4.984,6-1.149-.147-4.993-4.747-5.016-6A2,2,0,0,1,13,18Zm-.979,7.238C13.4,26.773,14.956,28,16,28c2.278,0,7-5.828,7-8a3.954,3.954,0,0,0-.255-1.362l6.145-3.781C30.464,16.968,32.655,19,34,19a4.019,4.019,0,0,0,2.163-1.033L54.092,29,30,43.826l-4.742-2.918C26.463,39.493,28,37.348,28,36a4,4,0,0,0-7-2.643,3.982,3.982,0,0,0-6.575.884L5.908,29ZM21,37.27a1,1,0,0,0,1-1V36a2,2,0,0,1,4,0,10.93,10.93,0,0,1-2.467,3.846l-7.4-4.552A2,2,0,0,1,20,36v.27A1,1,0,0,0,21,37.27ZM5,30.79,29.476,45.852a1,1,0,0,0,1.048,0L55,30.79V60H5ZM31,9a2,2,0,0,1,2,2v.27a1,1,0,0,0,2,0V11a2,2,0,0,1,4,0c-.023,1.253-3.867,5.853-4.984,6-1.149-.147-4.993-4.747-5.016-6A2,2,0,0,1,31,9Z"></path><path d="M37,36c2.278,0,7-5.828,7-8a4,4,0,0,0-7-2.643A4,4,0,0,0,30,28C30,30.172,34.722,36,37,36ZM34,26a2,2,0,0,1,2,2v.27a1,1,0,0,0,2,0V28a2,2,0,0,1,4,0c-.023,1.253-3.867,5.853-4.984,6-1.149-.147-4.993-4.747-5.016-6A2,2,0,0,1,34,26Z"></path><path d="M61,6a4,4,0,0,0-7-2.643A4,4,0,0,0,47,6c0,2.172,4.722,8,7,8S61,8.172,61,6ZM49,6a2,2,0,0,1,4,0v.27a1,1,0,0,0,2,0V6a2,2,0,0,1,4,0c-.023,1.253-3.867,5.853-4.984,6C52.867,11.853,49.023,7.253,49,6Z"></path></svg>