<svg height='100px' width='100px'  fill="#000000" xmlns:dc="http://purl.org/dc/elements/1.1/" xmlns:cc="http://creativecommons.org/ns#" xmlns:rdf="http://www.w3.org/1999/02/22-rdf-syntax-ns#" xmlns:svg="http://www.w3.org/2000/svg" xmlns="http://www.w3.org/2000/svg" xmlns:sodipodi="http://sodipodi.sourceforge.net/DTD/sodipodi-0.dtd" xmlns:inkscape="http://www.inkscape.org/namespaces/inkscape" version="1.1" x="0px" y="0px" viewBox="0 0 100 100"><g transform="translate(0,-952.36218)"><path style="font-size:medium;font-style:normal;font-variant:normal;font-weight:normal;font-stretch:normal;text-indent:0;text-align:start;text-decoration:none;line-height:normal;letter-spacing:normal;word-spacing:normal;text-transform:none;direction:ltr;block-progression:tb;writing-mode:lr-tb;text-anchor:start;baseline-shift:baseline;opacity:1;color:#000000;fill:#000000;fill-opacity:1;stroke:none;stroke-width:3.99999905000000000;marker:none;visibility:visible;display:inline;overflow:visible;enable-background:accumulate;font-family:Sans;-inkscape-font-specification:Sans" d="M 27.8125 18 A 2.0001995 2.0001995 0 0 0 26 20 L 26 42.875 L 18.9375 47.28125 A 2.0001998 2.0001998 0 0 0 18 49 L 18 80 A 2.0001998 2.0001998 0 0 0 20 82 L 80 82 A 2.0001998 2.0001998 0 0 0 82 80 L 82 49 A 2.0001998 2.0001998 0 0 0 81.0625 47.28125 L 74 42.875 L 74 20 A 2.0001995 2.0001995 0 0 0 72 18 L 28 18 A 2.0001995 2.0001995 0 0 0 27.8125 18 z M 30 22 L 70 22 L 70 52.6875 L 50 63.71875 L 30 52.6875 L 30 22 z M 43 26 C 37.898249 26 33.65625 30.07349 33.65625 35.125 C 33.65625 39.38588 36.515955 43.07499 39.625 46.21875 C 42.734045 49.3625 46.315411 51.98205 48.46875 53.59375 A 2.0001995 2.0001995 0 0 0 50.875 53.59375 C 53.02834 51.98205 56.609705 49.3625 59.71875 46.21875 C 62.827795 43.07499 65.65625 39.38588 65.65625 35.125 C 65.65625 30.07349 61.445502 26 56.34375 26 C 53.726985 26 51.361708 27.08888 49.65625 28.8125 C 47.950792 27.08888 45.616765 26 43 26 z M 43 30 C 45.187345 30 47.014525 31.24863 47.84375 33 A 2.0001995 2.0001995 0 0 0 51.46875 33 C 52.297976 31.24863 54.156406 30 56.34375 30 C 59.342174 30 61.65625 32.29531 61.65625 35.125 C 61.65625 37.41982 59.682622 40.53603 56.875 43.375 C 54.494271 45.78231 51.818093 47.86625 49.6875 49.46875 C 47.554704 47.86495 44.85646 45.78937 42.46875 43.375 C 39.661128 40.53603 37.65625 37.41982 37.65625 35.125 C 37.65625 32.29531 40.001577 30 43 30 z M 26 47.59375 L 26 50.46875 L 23.5625 49.125 L 26 47.59375 z M 74 47.59375 L 76.4375 49.125 L 74 50.46875 L 74 47.59375 z M 22 52.84375 L 35.1875 60.125 L 22 74.875 L 22 52.84375 z M 78 52.84375 L 78 74.875 L 64.8125 60.125 L 78 52.84375 z M 61.21875 62.09375 L 75.4375 78 L 24.59375 78 L 38.8125 62.125 L 49.03125 67.75 A 2.0001998 2.0001998 0 0 0 50.96875 67.75 L 61.21875 62.09375 z " transform="translate(0,952.36218)"></path></g></svg>