<svg height='100px' width='100px'  fill="#000000" xmlns="http://www.w3.org/2000/svg" data-name="Layer 1" viewBox="0 0 100 100" x="0px" y="0px"><title>Artboard 646</title><path d="M50,37a8,8,0,1,0-8,8A8,8,0,0,0,50,37ZM38,37a4,4,0,1,1,4,4A4,4,0,0,1,38,37Z"></path><path d="M73.73,70a2,2,0,0,0,0-2l-14-24a2,2,0,0,0-1.64-1,2.08,2.08,0,0,0-1.72.84L47.75,55.92l-6.34-6.33A2,2,0,0,0,39.8,49a2,2,0,0,0-1.46.88l-12,18A2,2,0,0,0,28,71H72A2,2,0,0,0,73.73,70Zm-42-3,8.57-12.86,6.28,6.27a2,2,0,0,0,1.57.58,2,2,0,0,0,1.47-.83l8.2-11.48L68.52,67Z"></path></svg>