<svg height='100px' width='100px'  fill="#000000" xmlns="http://www.w3.org/2000/svg" xmlns:xlink="http://www.w3.org/1999/xlink" version="1.1" x="0px" y="0px" viewBox="0 0 100 100" enable-background="new 0 0 100 100" xml:space="preserve"><path fill="#000000" d="M50,57.7c-12.9,0-23.4-10.5-23.4-23.4S37.1,10.8,50,10.8s23.4,10.5,23.4,23.4S62.9,57.7,50,57.7z M50,18.8  c-8.5,0-15.5,6.9-15.5,15.5S41.5,49.7,50,49.7s15.5-6.9,15.5-15.5S58.5,18.8,50,18.8z"></path><path fill="#000000" d="M82.9,90.5c-2.2,0-4-1.8-4-4c0-15.9-12.9-28.9-28.9-28.9S21.1,70.6,21.1,86.5c0,2.2-1.8,4-4,4s-4-1.8-4-4  c0-20.3,16.5-36.8,36.8-36.8s36.8,16.5,36.8,36.8C86.8,88.7,85.1,90.5,82.9,90.5z"></path></svg>